<?xml version="1.0" standalone="no"?>
<!DOCTYPE svg PUBLIC "-//W3C//DTD SVG 20010904//EN"
 "http://www.w3.org/TR/2001/REC-SVG-20010904/DTD/svg10.dtd">
<svg version="1.0" xmlns="http://www.w3.org/2000/svg"
 width="16.000000pt" height="16.000000pt" viewBox="0 0 16.000000 16.000000"
 preserveAspectRatio="xMidYMid meet">
<metadata>
Created by potrace 1.11, written by Peter Selinger 2001-2013
</metadata>
<g transform="translate(0.000000,16.000000) scale(0.002286,-0.002286)"
fill="#000000" stroke="none">
<path d="M1989 6991 c-67 -21 -121 -71 -151 -139 -20 -45 -21 -62 -21 -569 l0
-522 27 -55 c25 -51 86 -115 111 -116 5 -1 23 -6 38 -13 24 -10 -3 -12 -155
-12 -170 -1 -187 -3 -236 -24 -64 -29 -133 -102 -152 -162 -9 -29 -15 -100
-16 -212 -1 -168 -6 -207 -18 -144 -9 49 -66 110 -128 137 -53 23 -54 23 -563
23 -345 -1 -523 -4 -551 -12 -58 -16 -114 -63 -146 -124 l-28 -52 3 -195 c2
-193 2 -195 30 -242 33 -57 100 -106 159 -116 24 -4 270 -7 548 -7 486 1 507
2 550 21 54 25 115 90 125 133 3 17 10 33 13 35 4 2 7 -205 7 -460 0 -255 -3
-464 -7 -464 -3 0 -11 13 -16 28 -15 45 -70 101 -121 124 -45 21 -58 21 -541
22 -272 1 -519 -2 -549 -7 -72 -11 -137 -57 -171 -122 -23 -45 -25 -61 -28
-205 -2 -85 -1 -179 3 -207 9 -77 55 -140 129 -177 l58 -30 527 0 c511 1 527
1 571 22 53 24 90 61 120 120 12 23 23 42 24 42 0 0 1 -207 1 -460 0 -253 -3
-460 -6 -460 -3 0 -13 17 -22 38 -23 53 -77 102 -134 121 -43 14 -112 16 -568
16 l-520 -1 -50 -25 c-56 -29 -109 -91 -125 -147 -5 -21 -9 -117 -7 -222 2
-203 5 -216 69 -279 18 -19 53 -42 77 -53 41 -19 68 -20 555 -20 281 0 527 3
546 7 68 15 145 82 164 143 16 49 21 15 20 -130 0 -84 4 -171 9 -193 21 -84
89 -159 173 -191 41 -16 77 -19 221 -19 94 0 169 -3 168 -6 -2 -3 -23 -12 -45
-19 -52 -17 -114 -87 -131 -147 -9 -32 -12 -182 -12 -557 0 -487 1 -515 20
-557 27 -61 84 -114 143 -134 40 -13 83 -16 227 -13 164 3 182 5 227 27 56 28
106 91 121 154 7 27 11 227 10 552 -1 493 -2 512 -22 556 -23 51 -83 107 -134
125 -31 11 -32 13 -9 14 78 5 917 4 914 -1 -2 -4 -16 -10 -31 -14 -67 -16
-133 -95 -149 -175 -5 -25 -9 -270 -9 -546 l1 -501 27 -55 c23 -46 85 -112
107 -113 3 0 12 -5 20 -10 8 -6 99 -11 201 -13 202 -2 241 5 305 53 18 14 45
50 60 82 l28 56 0 526 -1 526 -23 48 c-26 54 -89 113 -131 122 -16 4 -27 10
-25 13 5 9 924 7 933 -1 3 -4 -4 -7 -16 -7 -56 0 -135 -73 -160 -147 -14 -43
-16 -111 -16 -558 1 -573 1 -572 71 -641 65 -66 111 -76 322 -72 163 3 181 5
222 27 56 29 87 63 113 120 18 42 19 69 19 565 0 479 -1 525 -18 566 -25 61
-60 98 -119 126 -27 13 -43 24 -35 25 8 0 89 1 180 3 156 2 168 4 217 29 66
34 98 68 131 137 25 52 26 64 28 228 1 95 4 176 8 179 3 4 6 -1 6 -11 0 -24
34 -87 62 -113 13 -12 45 -32 72 -44 48 -21 58 -21 572 -21 l524 -1 55 28 c60
29 104 82 125 150 8 27 11 100 8 220 -3 176 -4 181 -31 227 -15 26 -42 58 -60
72 -67 51 -92 53 -642 52 l-510 -1 -47 -23 c-55 -27 -114 -91 -123 -134 -4
-16 -10 -27 -13 -24 -5 6 -10 926 -5 926 2 0 12 -20 24 -45 27 -58 87 -109
146 -126 58 -16 996 -20 1073 -4 68 14 132 62 161 121 22 44 24 65 27 203 2
85 1 178 -3 208 -9 77 -55 140 -128 177 l-59 30 -516 -1 c-374 0 -529 -3 -561
-12 -54 -15 -136 -93 -146 -140 -4 -18 -10 -30 -13 -26 -9 8 -8 934 1 928 4
-2 7 -11 7 -19 0 -22 44 -87 79 -116 61 -52 67 -53 631 -52 582 1 563 -1 634
67 68 66 71 80 71 302 0 172 -2 205 -18 238 -34 71 -95 118 -172 133 -22 4
-265 7 -541 7 l-500 0 -55 -25 c-57 -26 -108 -79 -127 -133 -13 -37 -13 -36
-16 170 -2 150 -4 163 -28 210 -31 60 -77 105 -138 136 -42 21 -58 23 -227 23
l-182 1 47 24 c65 32 97 65 123 125 22 50 22 56 22 561 0 349 -4 523 -12 551
-17 61 -63 118 -118 145 -45 22 -60 24 -238 26 -186 2 -191 2 -243 -24 -62
-29 -117 -97 -129 -157 -5 -22 -8 -270 -8 -550 1 -493 2 -513 21 -556 25 -54
90 -115 133 -125 17 -3 33 -10 35 -13 5 -9 -921 -8 -930 1 -4 4 -1 7 8 7 27 0
76 30 107 66 65 74 63 56 64 636 l1 526 -30 58 c-34 67 -99 117 -165 128 -23
4 -114 6 -202 5 -134 -1 -167 -4 -205 -20 -56 -24 -98 -66 -125 -127 -20 -46
-20 -63 -21 -557 0 -585 -1 -581 74 -656 27 -27 60 -50 79 -54 18 -4 30 -10
26 -13 -5 -6 -925 -10 -925 -5 0 2 15 9 33 17 51 21 108 76 131 126 20 43 20
63 21 555 1 334 -2 524 -9 552 -17 65 -66 126 -125 156 -50 24 -58 25 -234 26
-100 0 -194 -4 -208 -8z"/>
</g>
</svg>
